<!-- Daily Decider - Custom SVG Icon Library -->
<!-- Signature visual elements for maximum brand recognition -->

<svg xmlns="http://www.w3.org/2000/svg" style="display: none;">
  
  <!-- Main Logo Icon -->
  <symbol id="dd-logo" viewBox="0 0 64 64">
    <defs>
      <linearGradient id="logoGradient" x1="0%" y1="0%" x2="100%" y2="100%">
        <stop offset="0%" style="stop-color:#6366f1"/>
        <stop offset="50%" style="stop-color:#14b8a6"/>
        <stop offset="100%" style="stop-color:#f59e0b"/>
      </linearGradient>
    </defs>
    <circle cx="32" cy="32" r="30" fill="url(#logoGradient)" opacity="0.1"/>
    <path d="M16 24 L32 8 L48 24 L40 32 L32 24 L24 32 Z" fill="url(#logoGradient)" stroke="none"/>
    <circle cx="32" cy="40" r="8" fill="url(#logoGradient)" opacity="0.8"/>
    <circle cx="32" cy="40" r="4" fill="white"/>
    <path d="M28 48 L32 52 L36 48" stroke="url(#logoGradient)" stroke-width="3" stroke-linecap="round" fill="none"/>
  </symbol>
  
  <!-- Decision Icon -->
  <symbol id="dd-decision" viewBox="0 0 24 24">
    <defs>
      <linearGradient id="decisionGradient" x1="0%" y1="0%" x2="100%" y2="100%">
        <stop offset="0%" style="stop-color:#6366f1"/>
        <stop offset="100%" style="stop-color:#4f46e5"/>
      </linearGradient>
    </defs>
    <path d="M12 2 L22 8.5 L22 15.5 L12 22 L2 15.5 L2 8.5 Z" fill="url(#decisionGradient)" opacity="0.2"/>
    <path d="M12 6 L18 9.5 L18 14.5 L12 18 L6 14.5 L6 9.5 Z" fill="url(#decisionGradient)"/>
    <circle cx="12" cy="12" r="3" fill="white"/>
    <path d="M10.5 12 L11.5 13 L13.5 11" stroke="url(#decisionGradient)" stroke-width="2" stroke-linecap="round" stroke-linejoin="round" fill="none"/>
  </symbol>
  
  <!-- Compliment Heart Icon -->
  <symbol id="dd-compliment" viewBox="0 0 24 24">
    <defs>
      <linearGradient id="complimentGradient" x1="0%" y1="0%" x2="100%" y2="100%">
        <stop offset="0%" style="stop-color:#f59e0b"/>
        <stop offset="100%" style="stop-color:#fbbf24"/>
      </linearGradient>
    </defs>
    <path d="M12 21.35l-1.45-1.32C5.4 15.36 2 12.28 2 8.5 2 5.42 4.42 3 7.5 3c1.74 0 3.41.81 4.5 2.09C13.09 3.81 14.76 3 16.5 3 19.58 3 22 5.42 22 8.5c0 3.78-3.4 6.86-8.55 11.54L12 21.35z" fill="url(#complimentGradient)"/>
    <path d="M8 8.5 L10 10.5 L16 6.5" stroke="white" stroke-width="2" stroke-linecap="round" stroke-linejoin="round" fill="none"/>
  </symbol>
  
  <!-- Analytics Chart Icon -->
  <symbol id="dd-analytics" viewBox="0 0 24 24">
    <defs>
      <linearGradient id="analyticsGradient" x1="0%" y1="100%" x2="100%" y2="0%">
        <stop offset="0%" style="stop-color:#14b8a6"/>
        <stop offset="100%" style="stop-color:#0ea5e9"/>
      </linearGradient>
    </defs>
    <rect x="2" y="12" width="4" height="10" rx="2" fill="url(#analyticsGradient)" opacity="0.6"/>
    <rect x="8" y="8" width="4" height="14" rx="2" fill="url(#analyticsGradient)" opacity="0.8"/>
    <rect x="14" y="4" width="4" height="18" rx="2" fill="url(#analyticsGradient)"/>
    <rect x="20" y="10" width="2" height="12" rx="1" fill="url(#analyticsGradient)" opacity="0.7"/>
    <path d="M3 8 L9 4 L15 6 L21 2" stroke="url(#analyticsGradient)" stroke-width="2" stroke-linecap="round" fill="none"/>
  </symbol>
  
  <!-- Time/Clock Icon -->
  <symbol id="dd-time" viewBox="0 0 24 24">
    <defs>
      <linearGradient id="timeGradient" x1="0%" y1="0%" x2="100%" y2="100%">
        <stop offset="0%" style="stop-color:#c4b5fd"/>
        <stop offset="100%" style="stop-color:#a5b4fc"/>
      </linearGradient>
    </defs>
    <circle cx="12" cy="12" r="10" fill="url(#timeGradient)" opacity="0.2"/>
    <circle cx="12" cy="12" r="8" fill="none" stroke="url(#timeGradient)" stroke-width="2"/>
    <path d="M12 6 L12 12 L16 14" stroke="url(#timeGradient)" stroke-width="2" stroke-linecap="round"/>
    <circle cx="12" cy="12" r="2" fill="url(#timeGradient)"/>
  </symbol>
  
  <!-- Pattern/Neural Network Icon -->
  <symbol id="dd-pattern" viewBox="0 0 24 24">
    <defs>
      <linearGradient id="patternGradient" x1="0%" y1="0%" x2="100%" y2="100%">
        <stop offset="0%" style="stop-color:#10b981"/>
        <stop offset="100%" style="stop-color:#14b8a6"/>
      </linearGradient>
    </defs>
    <circle cx="6" cy="6" r="3" fill="url(#patternGradient)" opacity="0.8"/>
    <circle cx="18" cy="6" r="3" fill="url(#patternGradient)" opacity="0.8"/>
    <circle cx="6" cy="18" r="3" fill="url(#patternGradient)" opacity="0.8"/>
    <circle cx="18" cy="18" r="3" fill="url(#patternGradient)" opacity="0.8"/>
    <circle cx="12" cy="12" r="4" fill="url(#patternGradient)"/>
    <path d="M9 9 L15 15" stroke="url(#patternGradient)" stroke-width="2" opacity="0.6"/>
    <path d="M15 9 L9 15" stroke="url(#patternGradient)" stroke-width="2" opacity="0.6"/>
    <path d="M6 9 L12 8" stroke="url(#patternGradient)" stroke-width="2" opacity="0.4"/>
    <path d="M18 9 L12 8" stroke="url(#patternGradient)" stroke-width="2" opacity="0.4"/>
  </symbol>
  
  <!-- Confidence Star Icon -->
  <symbol id="dd-confidence" viewBox="0 0 24 24">
    <defs>
      <linearGradient id="confidenceGradient" x1="0%" y1="0%" x2="100%" y2="100%">
        <stop offset="0%" style="stop-color:#fde047"/>
        <stop offset="100%" style="stop-color:#f59e0b"/>
      </linearGradient>
    </defs>
    <path d="M12 2 L15.09 8.26 L22 9.27 L17 14.14 L18.18 21.02 L12 17.77 L5.82 21.02 L7 14.14 L2 9.27 L8.91 8.26 Z" fill="url(#confidenceGradient)"/>
    <path d="M8 12 L10 14 L16 8" stroke="white" stroke-width="2" stroke-linecap="round" stroke-linejoin="round" fill="none"/>
  </symbol>
  
  <!-- Menu/Navigation Icon -->
  <symbol id="dd-menu" viewBox="0 0 24 24">
    <path d="M3 6h18M3 12h18M3 18h18" stroke="currentColor" stroke-width="2" stroke-linecap="round"/>
  </symbol>
  
  <!-- Close/X Icon -->
  <symbol id="dd-close" viewBox="0 0 24 24">
    <path d="M18 6L6 18M6 6l12 12" stroke="currentColor" stroke-width="2" stroke-linecap="round"/>
  </symbol>
  
  <!-- Settings/Gear Icon -->
  <symbol id="dd-settings" viewBox="0 0 24 24">
    <defs>
      <linearGradient id="settingsGradient" x1="0%" y1="0%" x2="100%" y2="100%">
        <stop offset="0%" style="stop-color:#737373"/>
        <stop offset="100%" style="stop-color:#525252"/>
      </linearGradient>
    </defs>
    <path d="M12.22 2h-.44a2 2 0 0 0-2 2v.18a2 2 0 0 1-1 1.73l-.43.25a2 2 0 0 1-2 0l-.15-.08a2 2 0 0 0-2.73.73l-.22.38a2 2 0 0 0 .73 2.73l.15.1a2 2 0 0 1 1 1.72v.51a2 2 0 0 1-1 1.74l-.15.09a2 2 0 0 0-.73 2.73l.22.38a2 2 0 0 0 2.73.73l.15-.08a2 2 0 0 1 2 0l.43.25a2 2 0 0 1 1 1.73V20a2 2 0 0 0 2 2h.44a2 2 0 0 0 2-2v-.18a2 2 0 0 1 1-1.73l.43-.25a2 2 0 0 1 2 0l.15.08a2 2 0 0 0 2.73-.73l.22-.39a2 2 0 0 0-.73-2.73l-.15-.08a2 2 0 0 1-1-1.74v-.5a2 2 0 0 1 1-1.74l.15-.09a2 2 0 0 0 .73-2.73l-.22-.38a2 2 0 0 0-2.73-.73l-.15.08a2 2 0 0 1-2 0l-.43-.25a2 2 0 0 1-1-1.73V4a2 2 0 0 0-2-2z" fill="url(#settingsGradient)" opacity="0.2"/>
    <circle cx="12" cy="12" r="3" fill="url(#settingsGradient)"/>
  </symbol>
  
  <!-- Loading Spinner -->
  <symbol id="dd-loading" viewBox="0 0 24 24">
    <defs>
      <linearGradient id="loadingGradient" x1="0%" y1="0%" x2="100%" y2="100%">
        <stop offset="0%" style="stop-color:#6366f1"/>
        <stop offset="100%" style="stop-color:#4f46e5"/>
      </linearGradient>
    </defs>
    <circle cx="12" cy="12" r="10" fill="none" stroke="url(#loadingGradient)" stroke-width="2" stroke-linecap="round" stroke-dasharray="60" stroke-dashoffset="30" opacity="0.3"/>
    <circle cx="12" cy="12" r="10" fill="none" stroke="url(#loadingGradient)" stroke-width="2" stroke-linecap="round" stroke-dasharray="15" stroke-dashoffset="15">
      <animate attributeName="stroke-dashoffset" values="15;0;-15" dur="1s" repeatCount="indefinite"/>
      <animateTransform attributeName="transform" type="rotate" values="0 12 12;360 12 12" dur="1s" repeatCount="indefinite"/>
    </circle>
  </symbol>
  
  <!-- Success Checkmark -->
  <symbol id="dd-success" viewBox="0 0 24 24">
    <defs>
      <linearGradient id="successGradient" x1="0%" y1="0%" x2="100%" y2="100%">
        <stop offset="0%" style="stop-color:#10b981"/>
        <stop offset="100%" style="stop-color:#059669"/>
      </linearGradient>
    </defs>
    <circle cx="12" cy="12" r="10" fill="url(#successGradient)"/>
    <path d="M8 12 L11 15 L16 9" stroke="white" stroke-width="2" stroke-linecap="round" stroke-linejoin="round" fill="none"/>
  </symbol>
  
  <!-- Warning Icon -->
  <symbol id="dd-warning" viewBox="0 0 24 24">
    <defs>
      <linearGradient id="warningGradient" x1="0%" y1="0%" x2="100%" y2="100%">
        <stop offset="0%" style="stop-color:#f59e0b"/>
        <stop offset="100%" style="stop-color:#d97706"/>
      </linearGradient>
    </defs>
    <path d="M12 2 L22 20 L2 20 Z" fill="url(#warningGradient)"/>
    <line x1="12" y1="9" x2="12" y2="13" stroke="white" stroke-width="2" stroke-linecap="round"/>
    <circle cx="12" cy="17" r="1" fill="white"/>
  </symbol>
  
  <!-- Error Icon -->
  <symbol id="dd-error" viewBox="0 0 24 24">
    <defs>
      <linearGradient id="errorGradient" x1="0%" y1="0%" x2="100%" y2="100%">
        <stop offset="0%" style="stop-color:#ef4444"/>
        <stop offset="100%" style="stop-color:#dc2626"/>
      </linearGradient>
    </defs>
    <circle cx="12" cy="12" r="10" fill="url(#errorGradient)"/>
    <path d="M15 9 L9 15 M9 9 L15 15" stroke="white" stroke-width="2" stroke-linecap="round"/>
  </symbol>
  
  <!-- Seasonal Icons -->
  <symbol id="dd-spring" viewBox="0 0 24 24">
    <defs>
      <linearGradient id="springGradient" x1="0%" y1="0%" x2="100%" y2="100%">
        <stop offset="0%" style="stop-color:#10b981"/>
        <stop offset="100%" style="stop-color:#6ee7b7"/>
      </linearGradient>
    </defs>
    <path d="M12 2 C12 2, 8 6, 8 10 C8 14, 12 16, 12 16 C12 16, 16 14, 16 10 C16 6, 12 2, 12 2 Z" fill="url(#springGradient)"/>
    <circle cx="12" cy="20" r="2" fill="url(#springGradient)" opacity="0.6"/>
    <path d="M7 18 Q12 15, 17 18" stroke="url(#springGradient)" stroke-width="2" fill="none"/>
  </symbol>
  
  <symbol id="dd-summer" viewBox="0 0 24 24">
    <defs>
      <linearGradient id="summerGradient" x1="0%" y1="0%" x2="100%" y2="100%">
        <stop offset="0%" style="stop-color:#fcd34d"/>
        <stop offset="100%" style="stop-color:#f59e0b"/>
      </linearGradient>
    </defs>
    <circle cx="12" cy="12" r="6" fill="url(#summerGradient)"/>
    <path d="M12 2v2M12 20v2M4.22 4.22l1.42 1.42M18.36 18.36l1.42 1.42M2 12h2M20 12h2M4.22 19.78l1.42-1.42M18.36 5.64l1.42-1.42" stroke="url(#summerGradient)" stroke-width="2" stroke-linecap="round"/>
  </symbol>
  
  <symbol id="dd-autumn" viewBox="0 0 24 24">
    <defs>
      <linearGradient id="autumnGradient" x1="0%" y1="0%" x2="100%" y2="100%">
        <stop offset="0%" style="stop-color:#fb923c"/>
        <stop offset="100%" style="stop-color:#ea580c"/>
      </linearGradient>
    </defs>
    <path d="M17 8C8 10 5.9 16.17 3.82 21.34l1.57.66C7.14 17.17 9 11.9 17 10.14z" fill="url(#autumnGradient)"/>
    <path d="M3.34 17C5.17 15.5 9 14.9 17 16v2c-8-.9-11.66.42-13.66 1.34z" fill="url(#autumnGradient)" opacity="0.7"/>
    <path d="M6 8c2-2 6-2 10 0" stroke="url(#autumnGradient)" stroke-width="2" stroke-linecap="round" fill="none"/>
  </symbol>
  
  <symbol id="dd-winter" viewBox="0 0 24 24">
    <defs>
      <linearGradient id="winterGradient" x1="0%" y1="0%" x2="100%" y2="100%">
        <stop offset="0%" style="stop-color:#7dd3fc"/>
        <stop offset="100%" style="stop-color:#0ea5e9"/>
      </linearGradient>
    </defs>
    <path d="M12 2v20M17 7l-10 10M7 7l10 10" stroke="url(#winterGradient)" stroke-width="2"/>
    <circle cx="12" cy="6" r="2" fill="url(#winterGradient)"/>
    <circle cx="12" cy="18" r="2" fill="url(#winterGradient)"/>
    <circle cx="6" cy="12" r="2" fill="url(#winterGradient)"/>
    <circle cx="18" cy="12" r="2" fill="url(#winterGradient)"/>
  </symbol>
  
</svg>